<?xml version="1.0" standalone="no"?>
<svg xmlns="http://www.w3.org/2000/svg" width="24" height="24"><rect width="24" height="24" opacity="0"></rect><g><path d="M16.44 7.34Q16.44 6.6 15.91 6.07Q15.38 5.54 14.64 5.54L5.21 5.57Q4.46 5.57 3.95 6.08Q3.43 6.6 3.43 7.34L3.43 21.05Q3.43 21.6 3.8 21.97Q4.18 22.34 4.69 22.37Q5.21 22.39 5.62 22.01L9.53 18.31Q9.72 18.19 9.92 18.19Q10.13 18.19 10.32 18.34L14.23 22.01Q14.59 22.39 15.12 22.38Q15.65 22.37 16.04 22Q16.44 21.62 16.44 21.07L16.44 7.34Z" fill="rgba(10,89,247,1)"></path><path d="M17.81 17.95Q18.34 18.43 18.67 18.53Q19.01 18.62 19.49 18.43Q19.8 18.29 20 18.02Q20.21 17.76 20.26 17.42Q20.28 17.35 20.28 17.23L20.28 3.5Q20.28 2.76 19.76 2.24Q19.25 1.73 18.48 1.73L9.05 1.73Q8.3 1.73 7.79 2.24Q7.27 2.76 7.27 3.5L7.27 4.27L8.76 4.27L8.76 3.5Q8.76 3.38 8.84 3.3Q8.93 3.22 9.05 3.22L18.5 3.22Q18.62 3.22 18.71 3.3Q18.79 3.38 18.79 3.5L18.79 16.78L17.71 15.77L17.71 17.86Z" fill="rgba(10,89,247,1)"></path></g></svg>